<svg id="Capa_1" data-name="Capa 1" xmlns="http://www.w3.org/2000/svg" viewBox="0 0 677.4 677.4"><defs><style>.cls-1{fill:#72c2b7;}.cls-2{fill:#fff;}</style></defs><circle class="cls-1" cx="338.7" cy="338.7" r="338.7"/><path class="cls-2" d="M386.27,285a1.75,1.75,0,0,1,2.11,1c3.46,6.29,9.32,8.43,15.38,10.72,51.75,19.57,103.56,38.93,155.28,58.58,25.32,9.62,50.69,19.06,76,28.66a18,18,0,0,0,13.18-.13q46.89-17.73,93.82-35.41L809.13,323c25.18-9.5,50.38-18.92,75.55-28.44a18.28,18.28,0,0,0,8.23-6.54c1-1.29,1.44-3.35,3.61-3.09" transform="translate(-315.04 -16.6)"/><path class="cls-2" d="M896.52,285c-3.09,6.43-8.19,9.79-14.53,12.16q-116.43,43.67-232.74,87.7a21.28,21.28,0,0,1-15.9-.13q-117.15-44.3-234.41-88.24A22.79,22.79,0,0,1,386.27,285v-9.51c1.52-6.62,5.72-10.28,11.61-12.46,47.49-17.58,94.88-35.47,142.33-53.17,30.23-11.27,60.5-22.4,90.57-34.15a27.18,27.18,0,0,1,20.77-.2c42.16,16.13,84.48,31.8,126.74,47.63q44.85,16.8,89.72,33.55c5.64,2.09,11.19,4.45,16.89,6.36,6,2,10.1,5.82,11.62,12.44Z" transform="translate(-315.04 -16.6)"/><path class="cls-2" d="M896.52,275.44c-3.12-6.67-8.5-10-15-12.37Q765.81,220,650.16,176.57a23.08,23.08,0,0,0-17.27-.09q-116.43,43.82-233,87.21c-6.13,2.27-10.65,5.77-13.61,11.75" transform="translate(-315.04 -16.6)"/><path class="cls-2" d="M791.68,401.9c0,9.51-.23,19,.06,28.53.35,11.31-4,20.05-12.07,27-13,11.16-28.36,17.12-44.14,21.93-36.48,11.12-73.73,14.91-111.6,12.95-32.27-1.67-63.83-7.05-94.14-19.24-9.78-3.93-19.11-8.85-27.19-16.08C495,450.14,490.9,441.69,491,430.8c.25-20.43.18-40.86,0-61.28,0-4.5,1-4.8,4.7-3.38,42.57,16.15,85.25,32,127.77,48.24a48,48,0,0,0,35.83.05c42-16,84-31.74,126-47.58,6.34-2.39,6.33-2.41,6.33,4.94Z" transform="translate(-315.04 -16.6)"/><path class="cls-2" d="M860.64,338.47v6.3c0,42.07,0,28.72,0,70.8,0,3.69.68,6.16,3.75,8.73,15.72,13.17,15.2,41-.93,53.61-2.42,1.89-2.81,3.86-2.81,6.62.06,23.94,0,44.62,0,68.56,0,10.08-6.22,17.63-14.79,17.52-9.44-.13-15.41-8.58-15.26-17.69.41-23.94.11-47.89.18-71.83,0-2.85-.64-4.67-3-6.51-16.19-12.7-16.36-37.76-.3-50.74,2.61-2.11,3.3-4.17,3.29-7.37-.08-39.08,0-22.74-.13-61.82,0-3.71.86-5.41,4.37-6.57C843.49,345.27,851.77,341.84,860.64,338.47Z" transform="translate(-315.04 -16.6)"/></svg>