<svg id="Capa_1" data-name="Capa 1" xmlns="http://www.w3.org/2000/svg" viewBox="0 0 680.26 680.26"><defs><style>.cls-1{fill:#e8b241;}.cls-2{fill:#fff;}</style></defs><circle class="cls-1" cx="340.13" cy="340.13" r="340.13"/><path class="cls-2" d="M862.79,359c-4.92-43-23.07-80.69-52.32-112.79-2-2.21-2-3.29.13-5.31,8.37-8.12,16.46-16.53,24.84-24.63,2.19-2.12,2-3.18-.06-5.22q-12.21-11.82-24-24c-2.16-2.23-3.38-2.45-5.67-.1-8.79,9.08-17.82,17.91-26.72,26.87-1.44,1.45-2.37,2.47-4.71.86a200.74,200.74,0,0,0-92.71-34.85c-2.51-.28-3.52-1.27-3.48-4q.24-17.49,0-35c0-3,.8-3.83,3.8-3.78,11,.18,22-.14,33,.18,4,.11,4.72-1.23,4.65-4.86-.21-12.31-.08-24.61-.08-36.92H595.09c0,12.3.13,24.61-.08,36.92-.07,3.62.64,5,4.65,4.86,11-.32,22,0,33-.18,3,0,3.85.77,3.8,3.78-.17,11.5-.24,23,0,34.49.09,3.62-1.56,4.29-4.47,4.62a199.81,199.81,0,0,0-90.55,34c-3,2.06-4.41,1.52-6.66-.79-8.46-8.72-17.21-17.15-25.66-25.87-2.24-2.32-3.52-2.83-6-.21q-11.73,12.3-24,24.08c-2.2,2.12-2.08,3.17,0,5.21,8.36,8.12,16.45,16.52,24.82,24.63,2.15,2.08,2.23,3.27.07,5.32a77.87,77.87,0,0,0-7,8c-38.85,48.6-54,103.86-44.28,165.17,8,50.19,31.88,92.19,71,124.84,48.22,40.29,104,55.34,166,46.35a194.4,194.4,0,0,0,103.38-48.21C847.79,493.39,871.12,431.78,862.79,359ZM657.35,551.2c-91.5.24-165.31-73.6-165.74-165.77-.42-90.61,74-165.34,165.07-165.68,91.42-.34,166.19,74.07,166.28,165.47A165.74,165.74,0,0,1,657.35,551.2Z" transform="translate(-315.54 -12.53)"/><path class="cls-2" d="M589.57,383.16c20.19,0,40.37-.14,60.55.11,4.2.05,5-1.29,4.93-5.15-.13-40.19,0-80.39-.22-120.58,0-5.28,1.54-5.8,6.24-5.61C717.63,254.16,770.82,294.68,784,357.4c14.19,67.6-29.49,136.9-96.82,153.41-73.47,18-146.26-28-161.22-101.93A120.25,120.25,0,0,1,523.51,387c-.06-3.21.85-4,4-3.94C548.18,383.23,568.88,383.16,589.57,383.16Z" transform="translate(-315.54 -12.53)"/></svg>