<svg id="Capa_1" data-name="Capa 1" xmlns="http://www.w3.org/2000/svg" viewBox="0 0 681.8 681.8"><defs><style>.cls-1{fill:#b578b0;}.cls-2{fill:#fff;}</style></defs><circle class="cls-1" cx="340.9" cy="340.9" r="340.9"/><path class="cls-2" d="M895.94,349.71c-9.38-13.86-18.16-28.13-27.76-41.84a22.28,22.28,0,0,1-4.07-15.3c1.38-16.82,2.08-33.67,3-50.51.25-4.67-1.23-7-5.2-9.06q-22.44-11.77-45.2-22.9a22.07,22.07,0,0,1-10.88-10.88c-7.33-15.56-16-30.46-23.37-46-1.75-3.7-4.33-5.41-8.45-5-10.64,1-21.32,1.25-32,1.92-6.33.4-12.74.19-19,1.19-5.31.84-9.63-.42-14-3.27-12.86-8.38-25.63-16.89-38.43-25.36-3.08-2-6.08-4.32-9.78-5.22-4.37-.08-7.51,2.69-10.82,4.86-12.56,8.23-25,16.68-37.54,24.92-3.47,2.28-7,4.78-11.48,4.4-10.63-.89-21.32-1-31.93-1.89-7.1-.57-14.24-.2-21.3-1.29-6.2-.95-7.79-.11-10.61,5.67-7.33,15-15.32,29.72-22.73,44.71-2.61,5.27-6.06,9.24-11.53,11.45-1.72.7-3.33,1.64-5,2.46-13.31,6.61-26.59,13.3-39.88,20-2.83,1.42-5.25,2.92-5.19,6.85.15,9.91.81,19.8,1.5,29.65.53,7.55.17,15.15,1.42,22.68,1,5.85-.46,11.17-4,16.18-6.21,8.69-12.17,17.58-17.77,26.66-4.13,6.68-9.43,12.68-12,20.27v1.86c1.14,2,1.75,4.26,3.1,6.2,7.59,11,14.27,22.55,22.11,33.31,6.49,8.9,11.12,17.84,7.92,29.16a5.85,5.85,0,0,0-.05,1.39c-.18,14.4-1.65,28.74-2.17,43.12-.15,4.15,1.11,6.24,4.6,8,15.85,7.81,31.65,15.73,47.28,24a20,20,0,0,1,9.26,9.28c7.43,15.18,15.14,30.21,22.57,45.38,2.19,4.47,5.24,6.53,10.25,6.25,6-.34,12.06-.72,18.06-1.17,7.87-.59,15.77-.48,23.63-1.4,10.33-1.21,20-.3,28.92,6.63,11,8.52,23.06,15.68,34.68,23.41,6.63,4.41,8.83,4.42,15.58-.11,13.5-9.08,27.33-17.68,40.77-26.85,2.32-1.57,4.68-3.15,7.6-3.24a128.16,128.16,0,0,1,15.8.13c13.56,1.26,27.2,1.23,40.76,2.56,5.16.51,8.24-1.56,10.56-6.29,7.44-15.16,14.83-30.36,22.86-45.23a23.13,23.13,0,0,1,10.66-10.48c14.51-7,28.77-14.56,43.34-21.45,5.27-2.49,7.36-5.85,7-11.59-.45-7.25-.71-14.55-1.31-21.78-.62-7.56-.31-15.15-1.39-22.7a29.38,29.38,0,0,1,5.7-22.66c9.27-12.6,17.07-26.24,26-39.08C898.9,357.41,898.75,353.86,895.94,349.71Zm-236.31,165c-90.32-.33-159.08-73.32-158.72-159.79.36-87.61,71.92-158.64,159.19-158.36,88.08.27,159.37,71.81,159,159.54C818.47,444.18,747.92,515.05,659.63,514.73Z" transform="translate(-315.23 -13.32)"/><path class="cls-2" d="M785.8,340.56A125.69,125.69,0,0,0,653.44,227.84c-67.29,3.62-124.85,62.78-117.73,138,6.06,64.06,62.33,116,130.09,112.89C733.85,476.85,793.23,416.36,785.8,340.56Zm-52.87-14.42-79.85,75H638.35l-46.25-46a12.45,12.45,0,0,1,17.55-17.66L646,373.6,715.89,308a12.45,12.45,0,1,1,17,18.15Z" transform="translate(-315.23 -13.32)"/></svg>