<svg id="Capa_1" data-name="Capa 1" xmlns="http://www.w3.org/2000/svg" viewBox="0 0 676.97 676.97"><defs><style>.cls-1{fill:#d86367;}.cls-2{fill:#fff;stroke:#fff;stroke-miterlimit:10;stroke-width:0.86px;}</style></defs><circle class="cls-1" cx="338.48" cy="338.48" r="338.48"/><path class="cls-2" d="M684.68,383.75c-29.72,34-73.69,33.94-103.25-.16Q571.7,372.37,562,361.13c-3.77-4.39-7.47-8.86-12.13-14.39L638.7,242.5a7.73,7.73,0,0,0-1.84-.22c-39.74,7-73.26,27.85-99.92,63.67a9.58,9.58,0,0,1-7.65,4.1q-28.48-.1-56.95-.12c-35,0-63.38,32.58-63.38,72.79v53.74c0,44.41,31.35,80.43,70,80.4q25.39,0,50.8-.1c3.08,0,5,1.17,7,3.83,54.36,73.83,146.28,86.8,213.43,30,7.82-6.61,14.94-14.4,22.46-21.73-27.9-50.88-55.22-100.73-83.49-152.31C687.38,379.45,686.29,381.91,684.68,383.75Z" transform="translate(-315.16 -17)"/><path class="cls-2" d="M785.28,309.83a8.37,8.37,0,0,1-6.21-2.86c-25.11-34.3-56.61-55.07-94.2-63.25-6-1.3-9.18,1.34-15.52,17-14.21,35.12-39.12,62.63-69.61,79.15-4.42,2.4-5.52,4.44-8,7.75,3.29,3.82,6.39,7.45,9.52,11,19.18,22,44.86,21.84,63.94-.5,8.74-10.23,17.39-20.58,26.09-30.87,1.1-1.3,2.29-2.5,3.63-4,8.8,12.38,17.21,24.52,25.9,36.36,10.72,14.6,24.36,20.12,40.47,17.24,9-1.62,16.63-6.86,23.52-13.82l19.92,24.46c-17,19.12-37.56,26.67-61.52,23.57,2.26,5.44-.7.51,15.06,18.11,19,21.2,31.94,48.32,38.44,77.81,2.19,10,4.78,9.78,8.3,9.78l27.09,0c32.16,0,73.67-48.51,73.67-85.46V374.65c0-35.72-25.18-64.68-56.27-64.7C826.73,309.94,802,309.91,785.28,309.83Z" transform="translate(-315.16 -17)"/><path class="cls-2" d="M599.78,183.78l-39.71-47-19.74,23.42L580,207.34Z" transform="translate(-315.16 -17)"/><path class="cls-2" d="M775.07,159.9l-20-23.65-40.25,47.5,20,23.6Z" transform="translate(-315.16 -17)"/><rect class="cls-2" x="328.01" y="86.45" width="28.53" height="68.15"/></svg>